<svg xmlns="http://www.w3.org/2000/svg" viewBox="0 0 64 64" aria-hidden="true">
  <defs>
    <linearGradient id="logo-gradient" x1="10" y1="9" x2="55" y2="56" gradientUnits="userSpaceOnUse">
      <stop offset="0" stop-color="#67e8f9"/>
      <stop offset="0.58" stop-color="#4da3ff"/>
      <stop offset="1" stop-color="#9b7bea"/>
    </linearGradient>
  </defs>
  <path d="M12 8.5h31.5A12.5 12.5 0 0 1 56 21v22.5A12.5 12.5 0 0 1 43.5 56H20.5A12.5 12.5 0 0 1 8 43.5V12.5A4 4 0 0 1 12 8.5Z" fill="none" stroke="url(#logo-gradient)" stroke-width="3"/>
  <path d="m27 20 15 11.5L27 43V20Z" fill="url(#logo-gradient)"/>
  <path d="M15.5 39.5v5.25m5-8.5v8.5m5-12v12m5-8.5v8.5m5-5.25v5.25" fill="none" stroke="#b8f7ff" stroke-linecap="round" stroke-width="2.5"/>
  <path d="M45 19.5a11 11 0 0 1 5 9m-8.5-5.5a6.5 6.5 0 0 1 3 5" fill="none" stroke="#b19af4" stroke-linecap="round" stroke-width="2.5"/>
</svg>
